<svg width="13" height="592" viewBox="0 0 13 592" fill="none" xmlns="http://www.w3.org/2000/svg">
<path d="M3.95212 581.408L3.95212 582.928C3.15212 583.088 2.56545 583.371 2.19212 583.776C1.72279 584.352 1.47745 585.12 1.45612 586.08C1.45612 587.445 2.06945 588.453 3.29612 589.104C4.09612 589.531 5.09346 589.744 6.28812 589.744C8.10146 589.744 9.42946 589.237 10.2721 588.224C10.7948 587.595 11.0561 586.837 11.0561 585.952C11.0561 584.789 10.6455 583.936 9.82412 583.392C9.73879 583.328 9.64812 583.275 9.55212 583.232C9.10412 582.997 8.50145 582.821 7.74412 582.704L7.74412 581.168C10.8268 581.52 12.3681 583.12 12.3681 585.968C12.3681 587.472 11.9148 588.661 11.0081 589.536C9.84546 590.667 8.27746 591.232 6.30412 591.232C4.35212 591.232 2.78412 590.688 1.60012 589.6C0.629454 588.725 0.144121 587.493 0.144121 585.904C0.144121 583.365 1.41345 581.867 3.95212 581.408ZM0.14412 574.229C0.14412 572.373 0.80012 570.928 2.11212 569.893L2.12812 569.877L2.14412 569.861C3.13612 569.093 4.38412 568.672 5.88812 568.597C6.03745 568.586 6.19212 568.581 6.35212 568.581C7.93079 568.581 9.28012 569.018 10.4001 569.893C10.6775 570.106 10.9228 570.341 11.1361 570.597C11.9575 571.568 12.3681 572.773 12.3681 574.213C12.3681 575.994 11.7441 577.408 10.4961 578.453C9.38679 579.381 7.97345 579.845 6.25612 579.845C4.29345 579.845 2.74145 579.253 1.60012 578.069C0.629454 577.056 0.14412 575.776 0.14412 574.229ZM1.45612 574.229C1.45612 575.616 2.00012 576.693 3.08812 577.461C3.94145 578.058 4.99745 578.357 6.25612 578.357C7.94145 578.357 9.22679 577.85 10.1121 576.837C10.7415 576.122 11.0561 575.248 11.0561 574.213C11.0561 572.837 10.5228 571.765 9.45612 570.997C8.61345 570.378 7.56812 570.069 6.32012 570.069C4.56012 570.069 3.23745 570.592 2.35212 571.637C1.75479 572.341 1.45612 573.205 1.45612 574.229ZM7.05612 565.056L12.0001 565.056L12.0001 566.544L0.33612 566.544L0.33612 561.728C0.33612 560.011 0.965454 558.901 2.22412 558.4C2.66145 558.219 3.17345 558.128 3.76012 558.128C4.79479 558.128 5.61612 558.464 6.22412 559.136C6.77879 559.755 7.05612 560.507 7.05612 561.392L7.05612 565.056ZM5.74412 565.056L5.74412 561.952C5.74412 560.864 5.34945 560.16 4.56012 559.84C4.30412 559.733 4.01612 559.68 3.69612 559.68C2.73612 559.68 2.10679 560.101 1.80812 560.944C1.80812 560.944 1.80812 560.949 1.80812 560.96C1.70145 561.248 1.64812 561.579 1.64812 561.952L1.64812 565.056L5.74412 565.056ZM7.42412 551.136L12.0001 551.136L12.0001 552.624L7.42412 552.624L0.33612 557.12L0.33612 555.28L6.01612 551.856L0.33612 548.528L0.33612 546.752L7.42412 551.136ZM6.97612 543.68L12.0001 543.68L12.0001 545.168L0.33612 545.168L0.336119 539.792C0.336119 537.979 0.976119 536.854 2.25612 536.416C2.60812 536.299 3.00812 536.24 3.45612 536.24C4.50145 536.24 5.29612 536.624 5.84012 537.392C5.97879 537.595 6.11212 537.824 6.24012 538.08C6.52812 537.419 6.88545 536.987 7.31212 536.784C7.70679 536.603 8.36279 536.507 9.28012 536.496C10.3041 536.475 10.9601 536.374 11.2481 536.192C11.3868 536.096 11.5148 535.963 11.6321 535.792L12.0001 535.792L12.0001 537.6C11.4881 537.824 10.8535 537.936 10.0961 537.936L9.05612 537.92C7.89345 537.92 7.22145 538.347 7.04012 539.2C6.99745 539.392 6.97612 539.606 6.97612 539.84L6.97612 543.68ZM5.66412 543.68L5.66412 540.08C5.66412 538.79 5.20545 538.048 4.28812 537.856C4.10679 537.814 3.89879 537.792 3.66412 537.792C2.96012 537.792 2.43745 537.995 2.09612 538.4C1.79745 538.742 1.64812 539.302 1.64812 540.08L1.64812 543.68L5.66412 543.68ZM0.336119 532.005L12.0001 532.005L12.0001 533.509L0.336119 533.509L0.336119 532.005ZM5.84012 519.312L12.0641 519.312L12.0641 520.256L10.5121 520.624C11.7495 521.734 12.3681 523.062 12.3681 524.608C12.3681 526.24 11.7601 527.558 10.5441 528.56C9.43479 529.488 8.01612 529.952 6.28812 529.952C4.41079 529.952 2.88545 529.408 1.71212 528.32C1.55212 528.171 1.40279 528.011 1.26412 527.84C0.517452 526.934 0.144118 525.771 0.144118 524.352C0.144118 522.443 0.773452 521.056 2.03212 520.192C2.55479 519.84 3.16812 519.6 3.87212 519.472L3.87212 520.992C2.82679 521.216 2.11212 521.835 1.72812 522.848C1.54679 523.296 1.45612 523.803 1.45612 524.368C1.45612 525.776 2.01079 526.859 3.12012 527.616C3.95212 528.182 4.98145 528.464 6.20812 528.464C7.55212 528.464 8.67212 528.139 9.56812 527.488C9.67479 527.403 9.77612 527.318 9.87212 527.232C10.6401 526.464 11.0348 525.483 11.0561 524.288C11.0561 523.072 10.6295 522.112 9.77612 521.408C9.13612 520.886 8.36812 520.624 7.47212 520.624L7.15212 520.624L7.15212 524.176L5.84012 524.176L5.84012 519.312ZM6.68812 509.387L6.68812 515.371L12.0001 515.371L12.0001 516.875L0.336118 516.875L0.336118 515.387L5.37612 515.387L5.37612 509.387L0.336118 509.387L0.336118 507.899L12.0001 507.899L12.0001 509.387L6.68812 509.387ZM1.64812 500.992L12.0001 500.992L12.0001 502.48L1.64812 502.48L1.64812 506.32L0.336118 506.32L0.336117 497.168L1.64812 497.168L1.64812 500.992ZM0.656117 487.878C0.656117 486.587 1.08278 485.601 1.93612 484.918C1.94678 484.918 1.95745 484.913 1.96812 484.902C2.53345 484.465 3.20545 484.246 3.98412 484.246C5.39212 484.246 6.53345 485.046 7.40812 486.646L8.27212 488.246C8.83745 489.217 9.38145 489.83 9.90412 490.086C10.1175 490.182 10.3521 490.251 10.6081 490.294L10.6081 484.326L12.0001 484.326L12.0001 491.878C10.6348 491.803 9.59478 491.499 8.88012 490.966C8.29345 490.518 7.69612 489.761 7.08812 488.694L6.25612 487.222C5.66945 486.198 4.92278 485.686 4.01612 485.686C3.24812 485.686 2.65612 486.006 2.24012 486.646C2.00545 487.019 1.88812 487.446 1.88812 487.926C1.88812 488.726 2.19212 489.339 2.80012 489.766C2.85345 489.798 2.91745 489.835 2.99212 489.878C3.33345 490.059 3.86678 490.171 4.59212 490.214L4.59212 491.622C3.52545 491.59 2.70412 491.387 2.12812 491.014C1.14678 490.374 0.656117 489.329 0.656117 487.878ZM0.656116 479.131C0.656116 476.806 2.41078 475.574 5.92012 475.435C6.14412 475.425 6.37345 475.419 6.60812 475.419C9.49878 475.419 11.3121 476.155 12.0481 477.627C12.2615 478.075 12.3681 478.577 12.3681 479.131C12.3681 481.009 11.2161 482.177 8.91212 482.635C8.20812 482.774 7.40812 482.843 6.51212 482.843C4.43212 482.843 2.89612 482.475 1.90412 481.739C1.14678 481.163 0.730783 480.369 0.656116 479.355C0.656116 479.281 0.656116 479.206 0.656116 479.131ZM1.90412 479.131C1.90412 480.646 3.44545 481.403 6.52812 481.403C9.64278 481.403 11.2001 480.657 11.2001 479.163C11.2001 477.905 10.1761 477.163 8.12812 476.939C7.63745 476.886 7.08812 476.859 6.48012 476.859C3.42945 476.859 1.90412 477.617 1.90412 479.131ZM0.656116 470.097C0.656116 468.806 1.08278 467.819 1.93612 467.137C1.94678 467.137 1.95745 467.131 1.96812 467.121C2.53345 466.683 3.20545 466.465 3.98412 466.465C5.39212 466.465 6.53345 467.265 7.40812 468.865L8.27212 470.465C8.83745 471.435 9.38145 472.049 9.90412 472.305C10.1175 472.401 10.3521 472.47 10.6081 472.513L10.6081 466.545L12.0001 466.545L12.0001 474.097C10.6348 474.022 9.59478 473.718 8.88012 473.185C8.29345 472.737 7.69612 471.979 7.08812 470.913L6.25612 469.441C5.66945 468.417 4.92278 467.905 4.01612 467.905C3.24812 467.905 2.65612 468.225 2.24012 468.865C2.00545 469.238 1.88812 469.665 1.88812 470.145C1.88812 470.945 2.19212 471.558 2.80012 471.985C2.85345 472.017 2.91745 472.054 2.99212 472.097C3.33345 472.278 3.86678 472.39 4.59212 472.433L4.59212 473.841C3.52545 473.809 2.70412 473.606 2.12812 473.233C1.14678 472.593 0.656116 471.547 0.656116 470.097ZM0.656116 461.35C0.656115 459.025 2.41078 457.793 5.92012 457.654C6.14412 457.643 6.37345 457.638 6.60812 457.638C9.49878 457.638 11.3121 458.374 12.0481 459.846C12.2614 460.294 12.3681 460.795 12.3681 461.35C12.3681 463.227 11.2161 464.395 8.91212 464.854C8.20812 464.993 7.40812 465.062 6.51212 465.062C4.43212 465.062 2.89612 464.694 1.90412 463.958C1.14678 463.382 0.730783 462.587 0.656116 461.574C0.656116 461.499 0.656116 461.425 0.656116 461.35ZM1.90412 461.35C1.90412 462.865 3.44545 463.622 6.52812 463.622C9.64278 463.622 11.2001 462.875 11.2001 461.382C11.2001 460.123 10.1761 459.382 8.12812 459.158C7.63745 459.105 7.08812 459.078 6.48012 459.078C3.42945 459.078 1.90412 459.835 1.90412 461.35ZM6.27212 448.406C7.28545 448.406 8.04812 448.118 8.56012 447.542L8.57612 447.526L8.57612 447.51C8.85345 447.19 8.99212 446.822 8.99212 446.406C8.99212 445.532 8.38412 444.977 7.16812 444.742C7.11478 444.732 7.06145 444.721 7.00812 444.71L7.00812 443.574C7.85078 443.745 8.46945 443.964 8.86412 444.23C9.61078 444.753 9.98412 445.478 9.98412 446.406C9.98412 447.484 9.53078 448.31 8.62412 448.886C7.97345 449.302 7.19478 449.51 6.28812 449.51C4.89078 449.51 3.85078 449.084 3.16812 448.23C2.74145 447.708 2.52812 447.084 2.52812 446.358C2.52812 445.078 3.21612 444.23 4.59212 443.814L4.60812 443.798C4.73612 443.766 4.86945 443.734 5.00812 443.702L5.00812 444.838C4.18678 445.052 3.70678 445.425 3.56812 445.958C3.53612 446.086 3.52012 446.236 3.52012 446.406C3.52012 447.206 3.92545 447.777 4.73612 448.118C5.17345 448.31 5.68545 448.406 6.27212 448.406ZM0.128115 446.502C0.128115 444.892 0.677448 443.5 1.77611 442.326C2.85345 441.174 4.17611 440.534 5.74411 440.406C5.90412 440.396 6.06412 440.39 6.22411 440.39C7.87745 440.39 9.29078 440.956 10.4641 442.086C11.6161 443.185 12.2401 444.55 12.3361 446.182C12.3468 446.321 12.3521 446.454 12.3521 446.582C12.3521 448.129 11.8081 449.484 10.7201 450.646C9.64278 451.788 8.34145 452.433 6.81612 452.582C6.62412 452.604 6.43212 452.614 6.24012 452.614C4.62945 452.614 3.23745 452.065 2.06412 450.966C0.912115 449.878 0.272115 448.55 0.144115 446.982C0.133448 446.822 0.128115 446.662 0.128115 446.502ZM1.12012 446.502C1.12012 447.878 1.61612 449.057 2.60812 450.038C3.60012 451.02 4.81078 451.516 6.24012 451.526C7.62678 451.526 8.82145 451.041 9.82412 450.07C10.8268 449.057 11.3388 447.889 11.3601 446.566C11.3601 445.126 10.8534 443.916 9.84012 442.934C8.84812 441.964 7.64278 441.478 6.22411 441.478C4.82678 441.478 3.62678 441.969 2.62412 442.95C1.63212 443.921 1.13078 445.105 1.12012 446.502ZM3.76011 426.62L3.76011 428.028C2.57611 428.039 1.82945 428.626 1.52011 429.788C1.43478 430.13 1.39211 430.514 1.39211 430.94C1.39211 432.05 1.72278 432.823 2.38411 433.26C2.67212 433.452 2.99745 433.548 3.36011 433.548C3.95745 433.548 4.40545 433.26 4.70411 432.684C4.84278 432.418 4.97078 432.066 5.08811 431.628L5.87211 428.7C6.22411 427.42 6.91745 426.631 7.95211 426.332C8.21878 426.258 8.50145 426.22 8.80011 426.22C9.69611 426.22 10.4801 426.53 11.1521 427.148C11.2694 427.266 11.3761 427.383 11.4721 427.5C12.0694 428.279 12.3681 429.372 12.3681 430.78C12.3681 432.583 11.8134 433.89 10.7041 434.7C10.0961 435.148 9.29078 435.378 8.28812 435.388L8.28812 433.98C8.98145 433.991 9.57878 433.788 10.0801 433.372C10.7308 432.828 11.0561 431.932 11.0561 430.684C11.0561 429.735 10.8908 429.02 10.5601 428.54C10.2294 428.071 9.76545 427.799 9.16811 427.724C9.09345 427.714 9.01878 427.708 8.94411 427.708C8.13345 427.708 7.54145 428.295 7.16811 429.468C7.12545 429.586 7.08811 429.714 7.05611 429.852L6.28811 432.748C5.89345 434.274 4.98678 435.036 3.56812 435.036C2.24545 435.036 1.28545 434.482 0.688115 433.372C0.325448 432.69 0.144114 431.863 0.144114 430.892C0.144114 429.015 0.736114 427.74 1.92011 427.068C2.44278 426.77 3.05611 426.62 3.76011 426.62ZM12.0001 419.212L12.0001 420.812L0.336114 425.004L0.336114 423.404L10.2081 419.98L0.336114 416.748L0.336114 415.164L12.0001 419.212ZM6.68811 411.884L10.6881 411.884L10.6881 405.004L12.0001 405.004L12.0001 413.372L0.336114 413.372L0.336113 405.292L1.64811 405.292L1.64811 411.884L5.37611 411.884L5.37611 405.532L6.68811 405.532L6.68811 411.884ZM1.64811 398.477L12.0001 398.477L12.0001 399.965L1.64811 399.965L1.64811 403.805L0.336113 403.805L0.336113 394.653L1.64811 394.653L1.64811 398.477ZM0.336113 391.591L10.6881 391.591L10.6881 385.831L12.0001 385.831L12.0001 393.079L0.336113 393.079L0.336113 391.591ZM8.49611 377.885L8.49611 382.381L12.0001 383.613L12.0001 385.197L0.336112 381.037L0.336112 379.117L12.0001 375.021L12.0001 376.685L8.49611 377.885ZM7.24811 378.301L1.93611 380.093L7.24811 382.013L7.24811 378.301ZM0.336112 364.461L12.0001 364.461L12.0001 366.141L2.54411 372.173L12.0001 372.173L12.0001 373.581L0.336112 373.581L0.336112 371.965L9.87211 365.869L0.336112 365.869L0.336112 364.461ZM8.49611 355.666L8.49611 360.162L12.0001 361.394L12.0001 362.978L0.336111 358.818L0.336111 356.898L12.0001 352.802L12.0001 354.466L8.49611 355.666ZM7.24811 356.082L1.93611 357.874L7.24811 359.794L7.24811 356.082ZM3.76011 338.589L3.76011 339.997C2.57611 340.008 1.82944 340.594 1.52011 341.757C1.43478 342.098 1.39211 342.482 1.39211 342.909C1.39211 344.018 1.72278 344.792 2.38411 345.229C2.67211 345.421 2.99744 345.517 3.36011 345.517C3.95744 345.517 4.40544 345.229 4.70411 344.653C4.84278 344.386 4.97078 344.034 5.08811 343.597L5.87211 340.669C6.22411 339.389 6.91744 338.6 7.95211 338.301C8.21878 338.226 8.50144 338.189 8.80011 338.189C9.69611 338.189 10.4801 338.498 11.1521 339.117C11.2694 339.234 11.3761 339.352 11.4721 339.469C12.0694 340.248 12.3681 341.341 12.3681 342.749C12.3681 344.552 11.8134 345.858 10.7041 346.669C10.0961 347.117 9.29078 347.346 8.28811 347.357L8.28811 345.949C8.98144 345.96 9.57878 345.757 10.0801 345.341C10.7308 344.797 11.0561 343.901 11.0561 342.653C11.0561 341.704 10.8908 340.989 10.5601 340.509C10.2294 340.04 9.76544 339.768 9.16811 339.693C9.09344 339.682 9.01878 339.677 8.94411 339.677C8.13344 339.677 7.54144 340.264 7.16811 341.437C7.12544 341.554 7.08811 341.682 7.05611 341.821L6.28811 344.717C5.89344 346.242 4.98678 347.005 3.56811 347.005C2.24544 347.005 1.28544 346.45 0.688111 345.341C0.325444 344.658 0.14411 343.832 0.14411 342.861C0.14411 340.984 0.73611 339.709 1.92011 339.037C2.44278 338.738 3.05611 338.589 3.76011 338.589ZM6.68811 334.525L10.6881 334.525L10.6881 327.645L12.0001 327.645L12.0001 336.013L0.33611 336.013L0.33611 327.933L1.64811 327.933L1.64811 334.525L5.37611 334.525L5.37611 328.173L6.68811 328.173L6.68811 334.525ZM6.97611 323.805L12.0001 323.805L12.0001 325.293L0.33611 325.293L0.33611 319.917C0.33611 318.104 0.97611 316.979 2.25611 316.541C2.60811 316.424 3.00811 316.365 3.45611 316.365C4.50144 316.365 5.29611 316.749 5.84011 317.517C5.97878 317.72 6.11211 317.949 6.24011 318.205C6.52811 317.544 6.88544 317.112 7.31211 316.909C7.70678 316.728 8.36278 316.632 9.28011 316.621C10.3041 316.6 10.9601 316.499 11.2481 316.317C11.3868 316.221 11.5148 316.088 11.6321 315.917L12.0001 315.917L12.0001 317.725C11.4881 317.949 10.8534 318.061 10.0961 318.061L9.05611 318.045C7.89344 318.045 7.22144 318.472 7.04011 319.325C6.99744 319.517 6.97611 319.731 6.97611 319.965L6.97611 323.805ZM5.66411 323.805L5.66411 320.205C5.66411 318.915 5.20544 318.173 4.28811 317.981C4.10678 317.939 3.89878 317.917 3.66411 317.917C2.96011 317.917 2.43744 318.12 2.09611 318.525C1.79744 318.867 1.64811 319.427 1.64811 320.205L1.64811 323.805L5.66411 323.805ZM5.84011 303.89L12.0641 303.89L12.0641 304.834L10.5121 305.202C11.7494 306.312 12.3681 307.64 12.3681 309.186C12.3681 310.818 11.7601 312.136 10.5441 313.138C9.43478 314.066 8.01611 314.53 6.28811 314.53C4.41078 314.53 2.88544 313.986 1.71211 312.898C1.55211 312.749 1.40278 312.589 1.26411 312.418C0.517443 311.512 0.144109 310.349 0.144109 308.93C0.144109 307.021 0.773442 305.634 2.03211 304.77C2.55478 304.418 3.16811 304.178 3.87211 304.05L3.87211 305.57C2.82678 305.794 2.11211 306.413 1.72811 307.426C1.54678 307.874 1.45611 308.381 1.45611 308.946C1.45611 310.354 2.01078 311.437 3.12011 312.194C3.95211 312.76 4.98144 313.042 6.20811 313.042C7.55211 313.042 8.67211 312.717 9.56811 312.066C9.67478 311.981 9.77611 311.896 9.87211 311.81C10.6401 311.042 11.0348 310.061 11.0561 308.866C11.0561 307.65 10.6294 306.69 9.77611 305.986C9.13611 305.464 8.36811 305.202 7.47211 305.202L7.15211 305.202L7.15211 308.754L5.84011 308.754L5.84011 303.89ZM6.68811 299.853L10.6881 299.853L10.6881 292.973L12.0001 292.973L12.0001 301.341L0.336109 301.341L0.336109 293.261L1.64811 293.261L1.64811 299.853L5.37611 299.853L5.37611 293.501L6.68811 293.501L6.68811 299.853ZM6.68811 289.181L10.6881 289.181L10.6881 282.301L12.0001 282.301L12.0001 290.669L0.336108 290.669L0.336108 282.589L1.64811 282.589L1.64811 289.181L5.37611 289.181L5.37611 282.829L6.68811 282.829L6.68811 289.181ZM12.0001 275.165L12.0001 276.765L0.336108 280.957L0.336108 279.357L10.2081 275.933L0.336108 272.701L0.336108 271.117L12.0001 275.165ZM8.49611 263.182L8.49611 267.678L12.0001 268.91L12.0001 270.494L0.336107 266.334L0.336107 264.414L12.0001 260.318L12.0001 261.982L8.49611 263.182ZM7.24811 263.598L1.93611 265.39L7.24811 267.31L7.24811 263.598ZM12.0001 254.217L0.336107 254.217L0.336107 249.721C0.336107 247.982 1.04011 246.691 2.44811 245.849C2.45877 245.838 2.46944 245.833 2.48011 245.833C3.46144 245.257 4.68811 244.969 6.16011 244.969C8.38944 244.969 10.0108 245.587 11.0241 246.825C11.6748 247.603 12.0001 248.569 12.0001 249.721L12.0001 254.217ZM10.6881 252.729L10.6881 249.977C10.6881 248.121 9.72277 246.995 7.79211 246.601C7.31211 246.505 6.77344 246.457 6.17611 246.457C3.55211 246.457 2.06944 247.353 1.72811 249.145C1.67477 249.411 1.64811 249.689 1.64811 249.977L1.64811 252.729L10.6881 252.729ZM6.68811 241.166L10.6881 241.166L10.6881 234.286L12.0001 234.286L12.0001 242.654L0.336106 242.654L0.336106 234.574L1.64811 234.574L1.64811 241.166L5.37611 241.166L5.37611 234.814L6.68811 234.814L6.68811 241.166ZM3.76011 223.886L3.76011 225.294C2.57611 225.305 1.82944 225.891 1.52011 227.054C1.43477 227.395 1.39211 227.779 1.39211 228.206C1.39211 229.315 1.72277 230.089 2.38411 230.526C2.67211 230.718 2.99744 230.814 3.36011 230.814C3.95744 230.814 4.40544 230.526 4.70411 229.95C4.84277 229.683 4.97077 229.331 5.08811 228.894L5.87211 225.966C6.22411 224.686 6.91744 223.897 7.95211 223.598C8.21877 223.523 8.50144 223.486 8.80011 223.486C9.69611 223.486 10.4801 223.795 11.1521 224.414C11.2694 224.531 11.3761 224.649 11.4721 224.766C12.0694 225.545 12.3681 226.638 12.3681 228.046C12.3681 229.849 11.8134 231.155 10.7041 231.966C10.0961 232.414 9.29077 232.643 8.28811 232.654L8.28811 231.246C8.98144 231.257 9.57877 231.054 10.0801 230.638C10.7308 230.094 11.0561 229.198 11.0561 227.95C11.0561 227.001 10.8908 226.286 10.5601 225.806C10.2294 225.337 9.76544 225.065 9.16811 224.99C9.09344 224.979 9.01877 224.974 8.94411 224.974C8.13344 224.974 7.54144 225.561 7.16811 226.734C7.12544 226.851 7.08811 226.979 7.05611 227.118L6.28811 230.014C5.89344 231.539 4.98677 232.302 3.56811 232.302C2.24544 232.302 1.28544 231.747 0.688106 230.638C0.325439 229.955 0.144105 229.129 0.144105 228.158C0.144105 226.281 0.736105 225.006 1.92011 224.334C2.44277 224.035 3.05611 223.886 3.76011 223.886ZM0.336105 219.646L12.0001 219.646L12.0001 221.15L0.336105 221.15L0.336105 219.646ZM5.8401 206.953L12.0641 206.953L12.0641 207.897L10.5121 208.265C11.7494 209.374 12.3681 210.702 12.3681 212.249C12.3681 213.881 11.7601 215.198 10.5441 216.201C9.43477 217.129 8.01611 217.593 6.28811 217.593C4.41077 217.593 2.88544 217.049 1.71211 215.961C1.55211 215.812 1.40277 215.652 1.26411 215.481C0.517438 214.574 0.144105 213.412 0.144105 211.993C0.144104 210.084 0.773438 208.697 2.0321 207.833C2.55477 207.481 3.16811 207.241 3.8721 207.113L3.87211 208.633C2.82677 208.857 2.11211 209.476 1.72811 210.489C1.54677 210.937 1.4561 211.444 1.4561 212.009C1.4561 213.417 2.01077 214.5 3.12011 215.257C3.95211 215.822 4.98144 216.105 6.20811 216.105C7.55211 216.105 8.67211 215.78 9.56811 215.129C9.67477 215.044 9.77611 214.958 9.87211 214.873C10.6401 214.105 11.0348 213.124 11.0561 211.929C11.0561 210.713 10.6294 209.753 9.77611 209.049C9.13611 208.526 8.36811 208.265 7.4721 208.265L7.15211 208.265L7.15211 211.817L5.84011 211.817L5.8401 206.953ZM0.336104 195.508L12.0001 195.508L12.0001 197.188L2.5441 203.22L12.0001 203.22L12.0001 204.628L0.336105 204.628L0.336105 203.012L9.8721 196.916L0.336104 196.916L0.336104 195.508ZM8.4961 182.26L8.4961 186.756L12.0001 187.988L12.0001 189.572L0.336104 185.412L0.336104 183.492L12.0001 179.396L12.0001 181.06L8.4961 182.26ZM7.2481 182.676L1.9361 184.468L7.2481 186.388L7.2481 182.676ZM0.336103 176.404L10.6881 176.404L10.6881 170.644L12.0001 170.644L12.0001 177.892L0.336103 177.892L0.336103 176.404ZM0.336103 167.513L10.6881 167.513L10.6881 161.753L12.0001 161.753L12.0001 169.001L0.336103 169.001L0.336103 167.513ZM6.9761 153.961L12.0001 153.961L12.0001 155.449L0.336102 155.449L0.336102 150.073C0.336102 148.26 0.976102 147.135 2.2561 146.697C2.6081 146.58 3.0081 146.521 3.4561 146.521C4.50144 146.521 5.2961 146.905 5.8401 147.673C5.97877 147.876 6.1121 148.105 6.2401 148.361C6.5281 147.7 6.88544 147.268 7.3121 147.065C7.70677 146.884 8.36277 146.788 9.2801 146.777C10.3041 146.756 10.9601 146.655 11.2481 146.473C11.3868 146.377 11.5148 146.244 11.6321 146.073L12.0001 146.073L12.0001 147.881C11.4881 148.105 10.8534 148.217 10.0961 148.217L9.0561 148.201C7.89344 148.201 7.22144 148.628 7.0401 149.481C6.99744 149.673 6.9761 149.887 6.9761 150.121L6.9761 153.961ZM5.6641 153.961L5.6641 150.361C5.6641 149.071 5.20544 148.329 4.2881 148.137C4.10677 148.095 3.89877 148.073 3.6641 148.073C2.9601 148.073 2.43744 148.276 2.0961 148.681C1.79744 149.023 1.6481 149.583 1.6481 150.361L1.6481 153.961L5.6641 153.961ZM0.336102 142.287L12.0001 142.287L12.0001 143.791L0.336102 143.791L0.336102 142.287ZM5.8401 129.593L12.0641 129.593L12.0641 130.537L10.5121 130.905C11.7494 132.015 12.3681 133.343 12.3681 134.889C12.3681 136.521 11.7601 137.839 10.5441 138.841C9.43477 139.769 8.0161 140.233 6.2881 140.233C4.41077 140.233 2.88544 139.689 1.7121 138.601C1.5521 138.452 1.40277 138.292 1.2641 138.121C0.517435 137.215 0.144101 136.052 0.144101 134.633C0.144101 132.724 0.773435 131.337 2.0321 130.473C2.55477 130.121 3.1681 129.881 3.8721 129.753L3.8721 131.273C2.82677 131.497 2.1121 132.116 1.7281 133.129C1.54677 133.577 1.4561 134.084 1.4561 134.649C1.4561 136.057 2.01077 137.14 3.1201 137.897C3.9521 138.463 4.98144 138.745 6.2081 138.745C7.5521 138.745 8.6721 138.42 9.5681 137.769C9.67477 137.684 9.7761 137.599 9.8721 137.513C10.6401 136.745 11.0348 135.764 11.0561 134.569C11.0561 133.353 10.6294 132.393 9.7761 131.689C9.1361 131.167 8.3681 130.905 7.4721 130.905L7.1521 130.905L7.1521 134.457L5.8401 134.457L5.8401 129.593ZM6.6881 119.668L6.6881 125.652L12.0001 125.652L12.0001 127.156L0.336101 127.156L0.336101 125.668L5.3761 125.668L5.3761 119.668L0.336101 119.668L0.336101 118.18L12.0001 118.18L12.0001 119.668L6.6881 119.668ZM1.6481 111.273L12.0001 111.273L12.0001 112.761L1.6481 112.761L1.6481 116.601L0.336101 116.601L0.3361 107.449L1.6481 107.449L1.6481 111.273ZM3.7601 97.6202L3.7601 99.0282C2.5761 99.0389 1.82943 99.6256 1.5201 100.788C1.43477 101.13 1.3921 101.514 1.3921 101.94C1.3921 103.05 1.72277 103.823 2.3841 104.26C2.6721 104.452 2.99743 104.548 3.3601 104.548C3.95743 104.548 4.40543 104.26 4.7041 103.684C4.84277 103.418 4.97077 103.066 5.0881 102.628L5.8721 99.7002C6.2241 98.4202 6.91743 97.6309 7.9521 97.3322C8.21877 97.2576 8.50143 97.2202 8.8001 97.2202C9.6961 97.2202 10.4801 97.5296 11.1521 98.1482C11.2694 98.2656 11.3761 98.3829 11.4721 98.5002C12.0694 99.2789 12.3681 100.372 12.3681 101.78C12.3681 103.583 11.8134 104.89 10.7041 105.7C10.0961 106.148 9.29077 106.378 8.2881 106.388L8.2881 104.98C8.98143 104.991 9.57877 104.788 10.0801 104.372C10.7308 103.828 11.0561 102.932 11.0561 101.684C11.0561 100.735 10.8908 100.02 10.5601 99.5402C10.2294 99.0709 9.76543 98.7989 9.1681 98.7242C9.09343 98.7136 9.01877 98.7082 8.9441 98.7082C8.13343 98.7082 7.54143 99.2949 7.1681 100.468C7.12543 100.586 7.0881 100.714 7.0561 100.852L6.2881 103.748C5.89343 105.274 4.98677 106.036 3.5681 106.036C2.24543 106.036 1.28543 105.482 0.6881 104.372C0.325433 103.69 0.1441 102.863 0.1441 101.892C0.1441 100.015 0.7361 98.7402 1.9201 98.0682C2.44277 97.7696 3.0561 97.6202 3.7601 97.6202ZM6.9761 89.0552L12.0001 89.0552L12.0001 90.5432L0.3361 90.5432L0.336099 85.1672C0.336099 83.3539 0.976099 82.2286 2.2561 81.7912C2.6081 81.6739 3.0081 81.6152 3.4561 81.6152C4.50143 81.6152 5.2961 81.9992 5.8401 82.7672C5.97877 82.9699 6.1121 83.1992 6.2401 83.4552C6.5281 82.7939 6.88543 82.3619 7.3121 82.1592C7.70677 81.9779 8.36277 81.8819 9.2801 81.8712C10.3041 81.8499 10.9601 81.7486 11.2481 81.5672C11.3868 81.4712 11.5148 81.3379 11.6321 81.1672L12.0001 81.1672L12.0001 82.9752C11.4881 83.1992 10.8534 83.3112 10.0961 83.3112L9.0561 83.2952C7.89343 83.2952 7.22143 83.7219 7.0401 84.5752C6.99743 84.7672 6.9761 84.9806 6.9761 85.2152L6.9761 89.0552ZM5.6641 89.0552L5.6641 85.4552C5.6641 84.1646 5.20543 83.4232 4.2881 83.2312C4.10677 83.1886 3.89877 83.1672 3.6641 83.1672C2.9601 83.1672 2.43743 83.3699 2.0961 83.7752C1.79743 84.1166 1.6481 84.6766 1.6481 85.4552L1.6481 89.0552L5.6641 89.0552ZM6.6881 77.5564L10.6881 77.5564L10.6881 70.6764L12.0001 70.6764L12.0001 79.0444L0.336099 79.0444L0.336099 70.9644L1.6481 70.9644L1.6481 77.5564L5.3761 77.5564L5.3761 71.2044L6.6881 71.2044L6.6881 77.5564ZM3.7601 60.2765L3.7601 61.6845C2.5761 61.6952 1.82943 62.2818 1.5201 63.4445C1.43476 63.7858 1.3921 64.1698 1.3921 64.5965C1.3921 65.7058 1.72277 66.4792 2.3841 66.9165C2.6721 67.1085 2.99743 67.2045 3.3601 67.2045C3.95743 67.2045 4.40543 66.9165 4.7041 66.3405C4.84277 66.0738 4.97077 65.7218 5.0881 65.2845L5.8721 62.3565C6.2241 61.0765 6.91743 60.2872 7.9521 59.9885C8.21877 59.9138 8.50143 59.8765 8.8001 59.8765C9.6961 59.8765 10.4801 60.1858 11.1521 60.8045C11.2694 60.9218 11.3761 61.0392 11.4721 61.1565C12.0694 61.9352 12.3681 63.0285 12.3681 64.4365C12.3681 66.2392 11.8134 67.5458 10.7041 68.3565C10.0961 68.8045 9.29077 69.0338 8.2881 69.0445L8.2881 67.6365C8.98143 67.6472 9.57877 67.4445 10.0801 67.0285C10.7308 66.4845 11.0561 65.5885 11.0561 64.3405C11.0561 63.3912 10.8908 62.6765 10.5601 62.1965C10.2294 61.7272 9.76543 61.4552 9.1681 61.3805C9.09343 61.3698 9.01877 61.3645 8.9441 61.3645C8.13343 61.3645 7.54143 61.9512 7.1681 63.1245C7.12543 63.2418 7.0881 63.3698 7.0561 63.5085L6.2881 66.4045C5.89343 67.9298 4.98677 68.6925 3.5681 68.6925C2.24543 68.6925 1.28543 68.1378 0.688099 67.0285C0.325432 66.3458 0.144098 65.5192 0.144098 64.5485C0.144098 62.6712 0.736098 61.3965 1.9201 60.7245C2.44276 60.4258 3.0561 60.2765 3.7601 60.2765ZM6.6881 56.2126L10.6881 56.2126L10.6881 49.3326L12.0001 49.3326L12.0001 57.7006L0.336098 57.7006L0.336098 49.6206L1.6481 49.6206L1.6481 56.2126L5.3761 56.2126L5.3761 49.8606L6.6881 49.8606L6.6881 56.2126ZM6.9761 45.4927L12.0001 45.4927L12.0001 46.9807L0.336098 46.9807L0.336098 41.6047C0.336097 39.7914 0.976097 38.6661 2.2561 38.2287C2.6081 38.1114 3.0081 38.0527 3.4561 38.0527C4.50143 38.0527 5.2961 38.4367 5.8401 39.2047C5.97876 39.4074 6.1121 39.6367 6.2401 39.8927C6.5281 39.2314 6.88543 38.7994 7.3121 38.5967C7.70676 38.4154 8.36276 38.3194 9.2801 38.3087C10.3041 38.2874 10.9601 38.1861 11.2481 38.0047C11.3868 37.9087 11.5148 37.7754 11.6321 37.6047L12.0001 37.6047L12.0001 39.4127C11.4881 39.6367 10.8534 39.7487 10.0961 39.7487L9.0561 39.7327C7.89343 39.7327 7.22143 40.1594 7.0401 41.0127C6.99743 41.2047 6.9761 41.4181 6.9761 41.6527L6.9761 45.4927ZM5.6641 45.4927L5.6641 41.8927C5.6641 40.6021 5.20543 39.8607 4.2881 39.6687C4.10676 39.6261 3.89876 39.6047 3.6641 39.6047C2.9601 39.6047 2.43743 39.8074 2.0961 40.2127C1.79743 40.5541 1.6481 41.1141 1.6481 41.8927L1.6481 45.4927L5.6641 45.4927ZM12.0001 30.6499L12.0001 32.2499L0.336097 36.4419L0.336097 34.8419L10.2081 31.4179L0.336097 28.1859L0.336097 26.6019L12.0001 30.6499ZM6.6881 23.322L10.6881 23.322L10.6881 16.442L12.0001 16.442L12.0001 24.81L0.336097 24.81L0.336096 16.73L1.6481 16.73L1.6481 23.322L5.3761 23.322L5.3761 16.97L6.6881 16.97L6.6881 23.322ZM12.0001 14.1541L0.336096 14.1541L0.336096 9.65812C0.336096 7.91946 1.0401 6.62879 2.4481 5.78612C2.45876 5.77546 2.46943 5.77012 2.4801 5.77012C3.46143 5.19412 4.6881 4.90612 6.1601 4.90612C8.38943 4.90612 10.0108 5.52479 11.0241 6.76212C11.6748 7.54079 12.0001 8.50612 12.0001 9.65812L12.0001 14.1541ZM10.6881 12.6661L10.6881 9.91412C10.6881 8.05812 9.72276 6.93279 7.7921 6.53812C7.3121 6.44212 6.77343 6.39412 6.1761 6.39412C3.5521 6.39412 2.06943 7.29012 1.7281 9.08212C1.67476 9.34879 1.6481 9.62612 1.6481 9.91412L1.6481 12.6661L10.6881 12.6661ZM10.3361 0.975249L12.0001 0.975249L12.0001 2.63925L10.3361 2.63925L10.3361 0.975249Z" fill="#010101"/>
</svg>
